<svg width="120.00000000000001" height="60.00000000000001" xmlns="http://www.w3.org/2000/svg">

 <g>
  <title>Layer 1</title>
  <rect stroke="#000" id="svg_7" height="63.92157" width="124.11765" y="-1.56863" x="-2.7451" fill="#000"/>
  <path id="svg_8" fill="#59666c" d="m9,24.867l5.916,-10.246l5.916,10.246l-5.918,10.262l-5.914,-10.262z"/>
  <path id="svg_9" fill="#bcae79" d="m32.67,24.867l-5.92,-10.247l-11.83,0l5.916,10.246l11.834,0.001z"/>
  <path id="svg_10" fill="#59666c" d="m38.58,35.133l-5.917,10.247l-5.916,-10.246l5.918,-10.262l5.915,10.261z"/>
  <path id="svg_11" fill="#bcae79" d="m14.91,35.133l5.92,10.245l11.83,0l-5.916,-10.246l-11.834,0.001z"/>
  <path id="svg_12" fill="#59666c" d="m45.248,34.465l1.44,0l0,-4.003l4.214,0l0,4.003l1.426,0l0,-8.917l-1.426,0l0,3.686l-4.214,0l0,-3.686l-1.44,0l0,8.917zm9.772,0l1.44,0l0,-8.917l-1.44,0l0,8.917zm10.063,-2.695c0,-0.925 -0.542,-1.8 -1.704,-2.034l0,-0.027c0.912,-0.317 1.52,-1.123 1.52,-2.034c0,-1.374 -1.004,-2.166 -2.946,-2.166l-2.8,0.04l0,8.917l2.43,0.04c2.735,0 3.5,-1.572 3.5,-2.735l0,-0.001zm-1.7,-3.87c0,0.898 -0.7,1.44 -2.034,1.44c-0.304,0 -0.528,0 -0.766,-0.013l0,-2.642l1.123,-0.026c1.268,0 1.677,0.515 1.677,1.242l0,-0.001zm0.172,3.897c0,0.898 -0.62,1.532 -1.93,1.532c-0.462,0 -0.82,-0.027 -1.043,-0.066l0,-2.84c0.198,-0.013 0.66,-0.013 0.806,-0.013c1.255,0 2.166,0.37 2.166,1.387l0.001,0zm5.085,-5.047l3.263,0l0,-1.202l-4.703,0l0,8.917l4.703,0l0,-1.23l-3.253,0l0,-2.775l3.104,0l0,-1.176l-3.104,0l-0.01,-2.534zm11.605,7.715l-2.35,-3.105l-0.753,-0.95c1.453,-0.158 2.523,-1.07 2.523,-2.497c0,-1.77 -1.268,-2.418 -3.118,-2.418l-2.4,0.053l0,8.917l1.44,0l0,-3.857l0.066,0l2.774,3.857l1.818,0zm-2.087,-6.394c0,0.885 -0.7,1.48 -1.863,1.48a7.92,7.92 0 0 1 -0.7,-0.026l0,-2.827l0.753,-0.026c1.202,0 1.8,0.423 1.8,1.4l0.01,-0.001z"/>
  <path id="svg_13" fill="#bcae79" d="m89.25,34.465l0,-8.917l-1.4,0l0,2.652l0.093,4.24l-1.083,-2.022l-2.946,-4.86l-1.9,0l0,8.917l1.4,0l0,-3l-0.08,-3.95l1,1.876l3.05,5.073l1.866,-0.009zm9.522,0l-3.236,-8.917l-1.6,0l-3.197,8.917l1.453,0l0.687,-1.968l3.606,0l0.687,1.968l1.6,0zm-2.668,-3.118l-2.854,0l1.004,-2.76c0.172,-0.476 0.317,-0.964 0.4,-1.414l0.026,0a9.61,9.61 0 0 0 0.396,1.374l1.028,2.8zm2.363,-4.584l2.444,0l0,7.702l1.44,0l0,-7.702l2.457,0l0,-1.215l-6.34,0l-0.001,1.215zm9.27,-0.013l3.263,0l0,-1.202l-4.703,0l0,8.917l4.703,0l0,-1.23l-3.263,0l0,-2.775l3.104,0l0,-1.176l-3.104,0l0,-2.534z"/>
 </g>
</svg>
